# xmcd CD database file
#
# Track frame offsets:
#	150
#	34160
#	59660
#	94525
#	115295
#	142460
#
# Disc length: 2484 seconds
#
# Revision: 1
# Processed by: cddbd v1.5.1PL2 Copyright (c) Steve Scherf et al.
# Submitted via: CDex 1.51
#
DISCID=5909b206
DTITLE=Marion Brown - Vista
DYEAR=1975
DGENRE=Jazz
TTITLE0=Maimoun
TTITLE1=Visions
TTITLE2=Vista
TTITLE3=Moment Of Truth
TTITLE4=Bismillahi 'Rrahmani' Rrahim
TTITLE5=Djinji
EXTD=YEAR: 1975
EXTT0=
EXTT1=
EXTT2=
EXTT3=
EXTT4=
EXTT5=
PLAYORDER=
